{
    "asset": {
        "version": "2.0",
        "generator": "This 3D model is generated by KIRI Engine App"
    },
    "extensionsUsed": [
        "KHR_materials_pbrSpecularGlossiness",
        "FB_ngon_encoding"
    ],
    "accessors": [
        {
            "bufferView": 0,
            "byteOffset": 0,
            "componentType": 5126,
            "count": 8517,
            "type": "VEC3",
            "max": [
                5.350526809692383,
                7.0334858894348148,
                5.158699989318848
            ],
            "min": [
                -5.51579475402832,
                -6.749443054199219,
                -6.197650909423828
            ]
        },
        {
            "bufferView": 1,
            "byteOffset": 0,
            "componentType": 5126,
            "count": 8517,
            "type": "VEC3",
            "max": [
                0.9997856020927429,
                0.9997552037239075,
                0.9987572431564331
            ],
            "min": [
                -0.9998264908790588,
                -0.9933367371559143,
                -0.9993529319763184
            ]
        },
        {
            "bufferView": 2,
            "byteOffset": 0,
            "componentType": 5126,
            "count": 8517,
            "type": "VEC2",
            "max": [
                0.989637017250061,
                0.9998610019683838
            ],
            "min": [
                0.0003440000000409782,
                0.00033402442932128906
            ]
        },
        {
            "bufferView": 3,
            "byteOffset": 0,
            "componentType": 5125,
            "count": 44256,
            "type": "SCALAR",
            "max": [
                8516
            ],
            "min": [
                0
            ]
        }
    ],
    "buffers": [
        {
            "byteLength": 449568,
            "uri": "3DModel_LowPoly.bin"
        }
    ],
    "bufferViews": [
        {
            "buffer": 0,
            "byteOffset": 0,
            "byteLength": 102204,
            "target": 34962
        },
        {
            "buffer": 0,
            "byteOffset": 102204,
            "byteLength": 102204,
            "target": 34962
        },
        {
            "buffer": 0,
            "byteOffset": 204408,
            "byteLength": 68136,
            "target": 34962
        },
        {
            "buffer": 0,
            "byteOffset": 272544,
            "byteLength": 177024,
            "target": 34963
        }
    ],
    "images": [
        {
            "uri": "data:image/jpeg;base64,"
        }
    ],
    "materials": [
        {
            "name": "3DModel_LowPoly",
            "pbrMetallicRoughness": {
                "baseColorTexture": {
                    "index": 0
                },
                "metallicFactor": 0.0
            },
            "extensions": {
                "KHR_materials_pbrSpecularGlossiness": {
                    "specularFactor": [
                        0.0,
                        0.0,
                        0.0
                    ],
                    "glossinessFactor": 0.0,
                    "diffuseTexture": {
                        "index": 0
                    }
                }
            }
        }
    ],
    "meshes": [
        {
            "name": "3DModel_LowPoly",
            "primitives": [
                {
                    "mode": 4,
                    "material": 0,
                    "indices": 3,
                    "attributes": {
                        "POSITION": 0,
                        "NORMAL": 1,
                        "TEXCOORD_0": 2
                    }
                }
            ]
        }
    ],
    "nodes": [
        {
            "name": "3DModel_LowPoly.obj",
            "children": [
                1
            ]
        },
        {
            "name": "3DModel_LowPoly",
            "mesh": 0
        }
    ],
    "samplers": [
        {}
    ],
    "scenes": [
        {
            "nodes": [
                0
            ]
        }
    ],
    "textures": [
        {
            "source": 0,
            "sampler": 0
        }
    ],
    "scene": 0
}