{"accessors" : [{"bufferView" : 0, "byteOffset" : 0, "componentType" : 5123, "count" : 2688, "type" : "SCALAR", "max" : [2687], "min" : [0]}, {"bufferView" : 1, "byteOffset" : 0, "componentType" : 5126, "count" : 2688, "type" : "VEC3", "max" : [0.27031925320625305, 0.2748267650604248, 0.11560651659965515], "min" : [-0.2718796133995056, -0.04900730773806572, -0.11497841775417328], "name" : "POSITION"}, {"bufferView" : 1, "byteOffset" : 12, "componentType" : 5126, "count" : 2688, "type" : "VEC3", "max" : [1.0000025033950806, 0.9942317605018616, 0.9992093443870544], "min" : [-0.9989290833473206, -0.9987358450889587, -0.9997263550758362], "name" : "NORMAL"}], "asset" : {"generator" : "Aspose.3D 24.6.0", "version" : "2.0"}, "buffers" : [{"uri" : "data:application/octet-stream;base64,", "byteLength" : 69896}], "bufferViews" : [{"buffer" : 0, "byteOffset" : 0, "byteLength" : 5376, "target" : 34963}, {"buffer" : 0, "byteOffset" : 5380, "byteLength" : 64512, "byteStride" : 24, "target" : 34962}], "meshes" : [{"primitives" : [{"attributes" : {"POSITION" : 1, "NORMAL" : 2}, "indices" : 0, "mode" : 4}], "name" : ""}], "nodes" : [{"mesh" : 0, "name" : ""}], "scene" : 0, "scenes" : [{"nodes" : [0]}]}