{
    "asset": {
        "version": "2.0",
        "generator": "This 3D model is generated by KIRI Engine App"
    },
    "extensionsUsed": [
        "KHR_materials_pbrSpecularGlossiness",
        "FB_ngon_encoding"
    ],
    "accessors": [
        {
            "bufferView": 0,
            "byteOffset": 0,
            "componentType": 5126,
            "count": 134130,
            "type": "VEC3",
            "max": [
                5.359776020050049,
                8.018310546875,
                5.185280799865723
            ],
            "min": [
                -5.528824806213379,
                -6.760967254638672,
                -6.2047882080078129
            ]
        },
        {
            "bufferView": 1,
            "byteOffset": 0,
            "componentType": 5126,
            "count": 134130,
            "type": "VEC3",
            "max": [
                0.999995231628418,
                0.9999794960021973,
                0.9999767541885376
            ],
            "min": [
                -0.9999985694885254,
                -0.9999414682388306,
                -0.9999200105667114
            ]
        },
        {
            "bufferView": 2,
            "byteOffset": 0,
            "componentType": 5126,
            "count": 134130,
            "type": "VEC2",
            "max": [
                0.9999070167541504,
                0.9999449849128723
            ],
            "min": [
                0.0000019999999949504856,
                0.0020080208778381349
            ]
        },
        {
            "bufferView": 3,
            "byteOffset": 0,
            "componentType": 5125,
            "count": 769677,
            "type": "SCALAR",
            "max": [
                134129
            ],
            "min": [
                0
            ]
        }
    ],
    "buffers": [
        {
            "byteLength": 7370868,
            "uri": "3DModel.bin"
        }
    ],
    "bufferViews": [
        {
            "buffer": 0,
            "byteOffset": 0,
            "byteLength": 1609560,
            "target": 34962
        },
        {
            "buffer": 0,
            "byteOffset": 1609560,
            "byteLength": 1609560,
            "target": 34962
        },
        {
            "buffer": 0,
            "byteOffset": 3219120,
            "byteLength": 1073040,
            "target": 34962
        },
        {
            "buffer": 0,
            "byteOffset": 4292160,
            "byteLength": 3078708,
            "target": 34963
        }
    ],
    "images": [
        {
            "uri": "data:image/jpeg;base64,"
        }
    ],
    "materials": [
        {
            "name": "3DModel",
            "pbrMetallicRoughness": {
                "baseColorTexture": {
                    "index": 0
                },
                "metallicFactor": 0.0
            },
            "extensions": {
                "KHR_materials_pbrSpecularGlossiness": {
                    "specularFactor": [
                        0.0,
                        0.0,
                        0.0
                    ],
                    "glossinessFactor": 0.0,
                    "diffuseTexture": {
                        "index": 0
                    }
                }
            }
        }
    ],
    "meshes": [
        {
            "name": "3DModel",
            "primitives": [
                {
                    "mode": 4,
                    "material": 0,
                    "indices": 3,
                    "attributes": {
                        "POSITION": 0,
                        "NORMAL": 1,
                        "TEXCOORD_0": 2
                    }
                }
            ]
        }
    ],
    "nodes": [
        {
            "name": "3DModel.obj",
            "children": [
                1
            ]
        },
        {
            "name": "3DModel",
            "mesh": 0
        }
    ],
    "samplers": [
        {}
    ],
    "scenes": [
        {
            "nodes": [
                0
            ]
        }
    ],
    "textures": [
        {
            "source": 0,
            "sampler": 0
        }
    ],
    "scene": 0
}