{"accessors" : [{"bufferView" : 0, "byteOffset" : 0, "componentType" : 5123, "count" : 21588, "type" : "SCALAR", "max" : [4281], "min" : [0]}, {"bufferView" : 1, "byteOffset" : 0, "componentType" : 5126, "count" : 4282, "type" : "VEC3", "max" : [0.29239898920059204, 0.11595399677753448, 0.15849600732326508], "min" : [-0.2513599991798401, -0.11189600080251694, -0.16470900177955627], "name" : "POSITION"}, {"bufferView" : 1, "byteOffset" : 12, "componentType" : 5126, "count" : 4282, "type" : "VEC2", "max" : [0.9998350143432617, 0.9999750256538391], "min" : [6.000000212225132E-06, 0.01630300283432007], "name" : "TEXCOORD_0"}, {"bufferView" : 1, "byteOffset" : 20, "componentType" : 5126, "count" : 4282, "type" : "VEC3", "max" : [0.9992063641548157, 0.9996573328971863, 0.9998223781585693], "min" : [-0.9991682767868042, -0.9997476935386658, -0.9959906935691833], "name" : "NORMAL"}], "asset" : {"generator" : "Aspose.3D 24.6.0", "version" : "2.0"}, "buffers" : [{"uri" : "data:application/octet-stream;base64,", "byteLength" : 180208}], "bufferViews" : [{"buffer" : 0, "byteOffset" : 0, "byteLength" : 43176, "target" : 34963}, {"buffer" : 0, "byteOffset" : 43180, "byteLength" : 137024, "byteStride" : 32, "target" : 34962}], "meshes" : [{"primitives" : [{"attributes" : {"POSITION" : 1, "TEXCOORD_0" : 2, "NORMAL" : 3}, "indices" : 0, "mode" : 4}], "name" : ""}], "nodes" : [{"mesh" : 0, "name" : "baked_mesh"}], "scene" : 0, "scenes" : [{"nodes" : [0]}]}